<?xml version="1.0" encoding="UTF-8" standalone="no"?>
<!-- Created with Inkscape (http://www.inkscape.org/) -->

<svg
   width="300"
   height="300"
   viewBox="0 0 79.374998 79.375"
   version="1.1"
   id="svg1"
   inkscape:version="1.4 (e7c3feb100, 2024-10-09)"
   sodipodi:docname="snowflake.svg"
   xmlns:inkscape="http://www.inkscape.org/namespaces/inkscape"
   xmlns:sodipodi="http://sodipodi.sourceforge.net/DTD/sodipodi-0.dtd"
   xmlns="http://www.w3.org/2000/svg"
   xmlns:svg="http://www.w3.org/2000/svg">
  <sodipodi:namedview
     id="namedview1"
     pagecolor="#ffffff"
     bordercolor="#000000"
     borderopacity="0.25"
     inkscape:showpageshadow="2"
     inkscape:pageopacity="0.0"
     inkscape:pagecheckerboard="0"
     inkscape:deskcolor="#d1d1d1"
     inkscape:document-units="mm"
     showguides="true"
     inkscape:zoom="2"
     inkscape:cx="159"
     inkscape:cy="172.5"
     inkscape:window-width="1920"
     inkscape:window-height="1011"
     inkscape:window-x="0"
     inkscape:window-y="0"
     inkscape:window-maximized="1"
     inkscape:current-layer="g9">
    <sodipodi:guide
       position="40.519351,39.346322"
       orientation="0,-1"
       id="guide1"
       inkscape:locked="false" />
    <sodipodi:guide
       position="39.954332,25.300317"
       orientation="1,0"
       id="guide2"
       inkscape:locked="false" />
  </sodipodi:namedview>
  <defs
     id="defs1" />
  <g
     inkscape:label="Layer 1"
     inkscape:groupmode="layer"
     id="layer1">
    <g
       id="g9"
       transform="matrix(0.89952466,0,0,0.89952466,3.6210284,3.2619354)"
       inkscape:label="snowflake">
      <path
         style="opacity:1;fill:#439ffe;fill-opacity:1;stroke-width:12.968;stroke-dasharray:none"
         d="m -2.9960121,31.375995 7.426955,-2.132492 6.6916131,3.823779 9.927118,0.294137 2.941368,2.867834 H 34.4329 l -5.882737,-5.000326 -5.515066,-1.544219 -5.662134,-8.235831 -9.4123781,-4.044382 -0.8824105,-6.397476 7.0592836,1.103014 4.853258,6.765147 8.015229,4.044381 1.838355,5.220929 7.132818,5.294463 -1.029479,-8.824105 -3.603176,-4.044382 0.367671,-9.044707 -3.603176,-7.7946261 2.867834,-6.6916129 5.147394,5.1473945 v 8.1622975 l 3.897313,8.456433 -1.764821,5.147395 2.720766,8.3829 4.412053,-7.574024 -0.588274,-5.515065 5.5886,-6.691613 1.985423,-8.5299683 6.029805,-3.75024461 1.176548,6.98574971 -5.147395,7.0592842 -1.544218,8.824105 -4.779724,3.088436 -2.647231,8.162297 7.941694,-3.382573 3.014903,-4.926792 8.677036,-2.058958 6.618079,-5.441531 6.838681,0.661808 -3.309039,6.47101 -8.309366,2.353095 -6.397476,6.103339 -5.662134,-0.294137 -7.132818,4.779723 8.456434,2.353095 5.147395,-2.132492 8.309365,3.529642 8.529968,-0.735342 5.220929,4.926792 -6.47101,3.161971 -11.618405,-2.720766 -5.367997,0.588274 -4.338519,-3.456108 -8.603502,-0.441205 5.367997,6.765147 5.662134,1.544218 4.485587,7.721092 7.132818,4.559121 1.544218,7.206352 -7.279886,-1.691286 -4.412053,-6.98575 -8.088762,-4.632655 -1.103014,-5.147395 -6.838681,-5.662134 0.367671,9.118242 3.529642,4.19145 -0.88241,8.824105 3.014902,8.015228 -2.941368,6.323942 -5.000326,-5.441531 0.735342,-8.309366 -3.529642,-8.456434 2.27956,-5.000326 -2.500163,-8.382899 -4.706189,7.279886 0.07353,5.441532 -6.176869,6.838681 -2.132492,8.015229 -6.10334,3.235505 -1.103013,-7.353421 5.735669,-6.323942 2.058957,-8.824105 4.779724,-2.573697 L 34.4329,45.862234 25.902932,48.583 22.814495,53.362723 13.916856,54.906941 7.298777,59.907267 0.23949307,58.951323 3.9162035,52.627381 12.0785,50.86256 l 7.059284,-5.662134 5.441532,0.588274 7.353421,-4.338519 -8.088763,-2.720765 -5.367997,1.838355 -8.088763,-3.970847 -8.4564342,0.07353"
         id="path10" />
      <g
         id="g10">
        <path
           style="fill:#43d0fe;fill-opacity:0.800429;stroke-width:11.665;stroke-dasharray:none"
           d="m 50.11236,28.325753 0.651632,-4.082186 1.322136,3.785039 2.947751,0.37453 -2.91909,1.142123 -0.293799,3.031066 -1.855359,-2.641504 -3.322231,-0.56092 z"
           id="path6-6" />
        <path
           style="fill:#43d0fe;fill-opacity:0.800429;stroke-width:24.3475;stroke-dasharray:none"
           d="m 60.531536,15.708056 7.17792,-4.788034 -3.924903,7.390813 3.604545,5.047086 -5.887558,-2.85336 -5.060298,3.846329 1.417083,-6.586825 -3.849797,-5.885023 z"
           id="path6-2-0" />
        <path
           style="fill:#43d0fe;fill-opacity:0.800429;stroke-width:11.665;stroke-dasharray:none"
           d="m 54.220268,46.579403 4.099623,-0.531002 -3.255722,2.339838 0.475521,2.933153 -1.92198,-2.476191 -2.990198,0.57654 2.007999,-2.527418 -0.402802,-3.345086 z"
           id="path6-6-6" />
        <path
           style="fill:#43d0fe;fill-opacity:0.800429;stroke-width:24.3475;stroke-dasharray:none"
           d="m 69.271932,52.999131 6.624643,5.528283 -8.199724,-1.67138 -3.819797,4.886202 1.069377,-6.454567 -5.121831,-3.764002 6.718498,-0.506125 4.553989,-5.358696 z"
           id="path6-2-0-5" />
        <path
           style="fill:#43d0fe;fill-opacity:0.800429;stroke-width:11.665;stroke-dasharray:none"
           d="m 41.110125,24.715994 -1.907421,-3.667507 3.316118,2.253425 2.591135,-1.454485 -1.664953,2.655836 1.568955,2.609992 -3.06352,-1.017224 -3.002972,1.527747 z"
           id="path6-6-68" />
        <path
           style="fill:#43d0fe;fill-opacity:0.800429;stroke-width:24.3475;stroke-dasharray:none"
           d="m 41.966715,8.3748879 2.915209,-8.12092106 1.248073,8.27473836 5.901255,1.9081428 -6.428986,1.213729 -1.774777,6.103362 -2.783985,-6.135455 -6.597267,-2.4352624 z"
           id="path6-2-0-8" />
        <path
           style="fill:#43d0fe;fill-opacity:0.800429;stroke-width:11.665;stroke-dasharray:none"
           d="m 31.563152,27.131988 -3.723444,-1.795782 4.005256,-0.180234 1.204761,-2.716259 0.256316,3.124074 2.819238,1.151336 -3.062859,1.019214 -1.490783,3.021492 z"
           id="path6-6-68-4" />
        <path
           style="fill:#43d0fe;fill-opacity:0.800429;stroke-width:11.665;stroke-dasharray:none"
           d="m 27.008024,34.925744 -4.0353,0.897345 3.032228,-2.623005 -0.737241,-2.878539 2.136772,2.293412 2.926271,-0.842979 -1.772695,2.697676 0.701844,3.29534 z"
           id="path6-6-68-4-7" />
        <path
           style="fill:#43d0fe;fill-opacity:0.800429;stroke-width:24.3475;stroke-dasharray:none"
           d="m 22.46649,13.52992 -2.526594,-8.2500989 5.953476,5.8809099 5.86925,-2.0044282 -4.423019,4.8209862 2.232249,5.951296 -5.903039,-3.247848 -6.742323,1.99888 z"
           id="path6-2-0-8-7" />
        <path
           style="fill:#43d0fe;fill-opacity:0.800429;stroke-width:24.3475;stroke-dasharray:none"
           d="M 11.138637,27.702853 2.5110643,27.589735 9.9289407,23.716224 9.812328,17.515237 l 3.240252,5.683818 6.348676,-0.308501 -4.895157,4.629452 -0.155253,7.030671 z"
           id="path6-2-0-8-7-8" />
        <path
           style="fill:#43d0fe;fill-opacity:0.800429;stroke-width:11.665;stroke-dasharray:none"
           d="m 55.091334,36.773232 2.969807,-2.875606 -1.212238,3.821654 2.134066,2.067674 -3.020782,-0.836905 -2.053045,2.249152 0.09971,-3.226447 -2.321921,-2.441421 z"
           id="path6-6-5" />
        <path
           style="fill:#43d0fe;fill-opacity:0.800429;stroke-width:24.3475;stroke-dasharray:none"
           d="m 70.99621,32.926099 8.61529,0.473898 -7.573407,3.559843 -0.142869,6.200436 -2.999669,-5.814378 -6.356024,0.04268 5.084517,-4.420643 0.449199,-7.018023 z"
           id="path6-2-0-0" />
        <path
           style="fill:#43d0fe;fill-opacity:0.800429;stroke-width:11.665;stroke-dasharray:none"
           d="m 38.096802,55.853014 1.700379,3.767968 -3.185583,-2.434466 -2.668058,1.308041 1.810163,-2.55907 -1.421285,-2.693256 3.002168,1.186124 3.083333,-1.358273 z"
           id="path6-6-0" />
        <path
           style="fill:#43d0fe;fill-opacity:0.800429;stroke-width:24.3475;stroke-dasharray:none"
           d="m 36.332204,72.121133 -3.362599,7.946115 -0.785673,-8.331368 -5.785928,-2.233575 6.486565,-0.854093 2.111661,-5.995144 2.43825,6.28087 6.451529,2.798608 z"
           id="path6-2-0-4" />
        <path
           style="fill:#43d0fe;fill-opacity:0.800429;stroke-width:11.665;stroke-dasharray:none"
           d="m 24.628593,42.865405 -3.132241,2.697764 1.432753,-3.744567 -2.010022,-2.188451 2.966913,1.011413 2.180551,-2.125765 -0.287445,3.215164 2.175792,2.572504 z"
           id="path6-6-6-0" />
        <path
           style="fill:#43d0fe;fill-opacity:0.800429;stroke-width:24.3475;stroke-dasharray:none"
           d="m 8.5266579,45.779711 -8.57306712,-0.974846 7.76787722,-3.112726 0.5037384,-6.181591 2.6559486,5.979208 6.347721,0.327571 -5.333343,4.117018 -0.857165,6.97995 z"
           id="path6-2-0-5-6" />
        <path
           style="fill:#43d0fe;fill-opacity:0.800429;stroke-width:11.665;stroke-dasharray:none"
           d="m 47.600829,53.91805 3.609817,2.014469 -4.008879,-0.05876 -1.36448,2.639641 -0.0697,-3.133796 -2.74562,-1.317288 3.118151,-0.834887 1.668183,-2.927288 z"
           id="path6-6-68-1" />
        <path
           style="fill:#43d0fe;fill-opacity:0.800429;stroke-width:24.3475;stroke-dasharray:none"
           d="m 55.870784,68.038012 2.030485,8.385997 -5.592456,-6.225224 -5.978263,1.65112 4.70244,-4.548853 -1.873647,-6.07374 5.699011,3.593836 6.849454,-1.593556 z"
           id="path6-2-0-8-1" />
        <path
           style="fill:#43d0fe;fill-opacity:0.800429;stroke-width:11.665;stroke-dasharray:none"
           d="m 29.293116,51.535006 -0.899341,4.034854 -1.088873,-3.858616 -2.919428,-0.553579 2.983302,-0.961999 0.478079,-3.007511 1.690834,2.749724 3.281845,0.762457 z"
           id="path6-6-5-3" />
        <path
           style="fill:#43d0fe;fill-opacity:0.800429;stroke-width:24.3475;stroke-dasharray:none"
           d="m 18.123933,63.493888 -7.456525,4.341433 4.368273,-7.137729 -3.290079,-5.257491 5.702611,3.207059 5.285421,-3.530607 -1.816094,6.488157 3.48378,6.108823 z"
           id="path6-2-0-0-9" />
      </g>
    </g>
  </g>
</svg>
